{
    "asset" : {
        "generator" : "Khronos glTF Blender I/O v1.7.33",
        "version" : "2.0"
    },
    "scene" : 0,
    "scenes" : [
        {
            "name" : "Scene",
            "nodes" : [
                0
            ]
        }
    ],
    "nodes" : [
        {
            "mesh" : 0,
            "name" : "Player",
            "rotation" : [
                0,
                -1,
                0,
                4.887620548288396e-07
            ],
            "scale" : [
                0.06472598761320114,
                0.06472599506378174,
                0.06472599506378174
            ],
            "translation" : [
                0,
                1.4314422607421875,
                0
            ]
        }
    ],
    "materials" : [
        {
            "doubleSided" : true,
            "name" : "Material",
            "pbrMetallicRoughness" : {
                "baseColorFactor" : [
                    0.800000011920929,
                    0.800000011920929,
                    0.800000011920929,
                    1
                ],
                "metallicFactor" : 0,
                "roughnessFactor" : 0.4000000059604645
            }
        }
    ],
    "meshes" : [
        {
            "name" : "Cube",
            "primitives" : [
                {
                    "attributes" : {
                        "POSITION" : 0,
                        "NORMAL" : 1,
                        "TEXCOORD_0" : 2
                    },
                    "indices" : 3,
                    "material" : 0
                }
            ]
        }
    ],
    "accessors" : [
        {
            "bufferView" : 0,
            "componentType" : 5126,
            "count" : 2090,
            "max" : [
                7.432039737701416,
                1.5090370178222656,
                2.234541893005371
            ],
            "min" : [
                -7.432039737701416,
                -22.12575912475586,
                -0.8332385420799255
            ],
            "type" : "VEC3"
        },
        {
            "bufferView" : 1,
            "componentType" : 5126,
            "count" : 2090,
            "type" : "VEC3"
        },
        {
            "bufferView" : 2,
            "componentType" : 5126,
            "count" : 2090,
            "type" : "VEC2"
        },
        {
            "bufferView" : 3,
            "componentType" : 5123,
            "count" : 3150,
            "type" : "SCALAR"
        }
    ],
    "bufferViews" : [
        {
            "buffer" : 0,
            "byteLength" : 25080,
            "byteOffset" : 0
        },
        {
            "buffer" : 0,
            "byteLength" : 25080,
            "byteOffset" : 25080
        },
        {
            "buffer" : 0,
            "byteLength" : 16720,
            "byteOffset" : 50160
        },
        {
            "buffer" : 0,
            "byteLength" : 6300,
            "byteOffset" : 66880
        }
    ],
    "buffers" : [
        {
            "byteLength" : 73180,
            "uri" : "data:application/octet-stream;base64,"
        }
    ]
}
